<?xml version="1.0" encoding="utf-8"?>
<!-- Generator: Adobe Illustrator 19.0.0, SVG Export Plug-In . SVG Version: 6.00 Build 0)  -->
<svg version="1.1" id="Layer_1" xmlns="http://www.w3.org/2000/svg" xmlns:xlink="http://www.w3.org/1999/xlink" x="0px" y="0px"
	 viewBox="0 0 97.8 70" style="enable-background:new 0 0 97.8 70;" xml:space="preserve">
<style type="text/css">
	.st0{fill:#FFFFFF;}
</style>
<g id="XMLID_1_">
	<path id="XMLID_53_" class="st0" d="M29.6,19.2h3.3v14.4h-3.3v-5.5h-4.2v5.5h-3.3V19.2h3.3v5.7h4.2V19.2z"/>
	<path id="XMLID_55_" class="st0" d="M40.8,19.2c1,0,1.9,0.2,2.8,0.6c0.9,0.4,1.6,0.9,2.3,1.5c0.7,0.6,1.2,1.4,1.6,2.3
		c0.4,0.9,0.6,1.8,0.6,2.8s-0.2,1.9-0.6,2.8c-0.4,0.9-0.9,1.6-1.6,2.3c-0.7,0.6-1.4,1.2-2.3,1.5s-1.8,0.6-2.8,0.6
		c-1,0-1.9-0.2-2.8-0.6s-1.6-0.9-2.3-1.5c-0.6-0.6-1.2-1.4-1.5-2.3c-0.4-0.9-0.6-1.8-0.6-2.8s0.2-1.9,0.6-2.8
		c0.4-0.9,0.9-1.6,1.5-2.3c0.6-0.6,1.4-1.2,2.3-1.5C38.9,19.4,39.8,19.2,40.8,19.2z M40.8,30.3c0.5,0,1-0.1,1.5-0.3
		c0.5-0.2,0.9-0.5,1.2-0.8c0.4-0.4,0.6-0.8,0.8-1.2c0.2-0.5,0.3-1,0.3-1.5c0-0.5-0.1-1-0.3-1.5c-0.2-0.5-0.5-0.9-0.8-1.2
		c-0.4-0.4-0.8-0.6-1.2-0.8c-0.5-0.2-1-0.3-1.5-0.3c-0.5,0-1,0.1-1.5,0.3c-0.5,0.2-0.9,0.5-1.2,0.8c-0.4,0.4-0.6,0.8-0.8,1.2
		c-0.2,0.5-0.3,1-0.3,1.5c0,0.5,0.1,1,0.3,1.5c0.2,0.5,0.5,0.9,0.8,1.2c0.4,0.4,0.8,0.6,1.2,0.8C39.8,30.2,40.3,30.3,40.8,30.3z"/>
	<path id="XMLID_58_" class="st0" d="M58.7,19.2h3.4l0.8,14.5h-3.3l-0.4-5.9l-2,5.9h-3.3l-2.1-6.1l-0.4,6.1h-3.3L49,19.2h3.4
		l3.2,9.1L58.7,19.2z"/>
	<path id="XMLID_60_" class="st0" d="M73,22.5H67v2.2h4.8v3.3H67v2.3H73v3.3h-9.3V19.2l9.3,0V22.5z"/>
</g>
<g id="XMLID_3_">
	<path id="XMLID_38_" class="st0" d="M9.1,35.2h8.1v1.4h-6.7V41h6.6v1.4h-6.6v5.6h6.6v1.4h-8V35.2z"/>
	<path id="XMLID_40_" class="st0" d="M18.9,35.2h1.7l3.4,5.5l3.4-5.5H29L24.8,42l4.5,7.3h-1.7l-3.7-6l-3.7,6h-1.7l4.5-7.3L18.9,35.2
		z"/>
	<path id="XMLID_42_" class="st0" d="M31.7,35.2h2.8c1.6,0,2.7,0.1,3.3,0.2c0.8,0.2,1.5,0.6,2,1.2c0.5,0.6,0.8,1.4,0.8,2.3
		c0,0.9-0.3,1.7-0.7,2.3c-0.5,0.6-1.2,1-2.1,1.2c-0.6,0.2-1.8,0.2-3.6,0.2h-1v6.6h-1.4V35.2z M33.1,36.6v4.8l2.4,0
		c1,0,1.7-0.1,2.1-0.3c0.4-0.2,0.8-0.5,1.1-0.9c0.3-0.4,0.4-0.8,0.4-1.3c0-0.5-0.1-0.9-0.4-1.3c-0.3-0.4-0.6-0.7-1-0.8
		s-1.1-0.2-2.1-0.2H33.1z"/>
	<path id="XMLID_45_" class="st0" d="M43.3,35.2h8.1v1.4h-6.7V41h6.6v1.4h-6.6v5.6h6.6v1.4h-8V35.2z"/>
	<path id="XMLID_47_" class="st0" d="M53.9,49.3V35.2h0.3L63.6,46V35.2H65v14.1h-0.3l-9.3-10.7v10.7H53.9z"/>
	<path id="XMLID_49_" class="st0" d="M67,46.7l1.2-0.7c0.8,1.6,1.8,2.3,2.9,2.3c0.5,0,0.9-0.1,1.3-0.3c0.4-0.2,0.7-0.5,1-0.9
		c0.2-0.4,0.3-0.8,0.3-1.2c0-0.5-0.2-0.9-0.5-1.4c-0.4-0.6-1.2-1.4-2.4-2.3c-1.2-0.9-1.9-1.5-2.2-1.9c-0.5-0.7-0.7-1.4-0.7-2.2
		c0-0.6,0.1-1.2,0.4-1.7c0.3-0.5,0.7-0.9,1.2-1.2c0.5-0.3,1.1-0.4,1.7-0.4c0.7,0,1.3,0.2,1.9,0.5c0.6,0.3,1.2,0.9,1.8,1.8L73.8,38
		c-0.5-0.7-1-1.2-1.4-1.4c-0.4-0.2-0.8-0.3-1.2-0.3c-0.6,0-1,0.2-1.4,0.5s-0.5,0.8-0.5,1.3c0,0.3,0.1,0.6,0.2,0.9
		c0.1,0.3,0.4,0.6,0.7,0.9c0.2,0.2,0.8,0.7,1.8,1.4c1.2,0.9,2.1,1.7,2.5,2.4c0.5,0.7,0.7,1.4,0.7,2.1c0,1-0.4,1.9-1.2,2.7
		c-0.8,0.8-1.7,1.1-2.8,1.1c-0.9,0-1.6-0.2-2.3-0.7S67.6,47.8,67,46.7z"/>
	<path id="XMLID_51_" class="st0" d="M78.2,35.2h8.1v1.4h-6.7V41h6.6v1.4h-6.6v5.6h6.6v1.4h-8V35.2z"/>
</g>
<g id="XMLID_4_">
	<path id="XMLID_21_" class="st0" d="M17.3,51.2h3.4l0.8,14.5h-3.3l-0.4-5.9l-2,5.9h-3.3l-2.1-6.1l-0.4,6.1H6.7l0.9-14.5h3.4
		l3.2,9.1L17.3,51.2z"/>
	<path id="XMLID_23_" class="st0" d="M28.8,51.2c1,0,1.9,0.2,2.8,0.6s1.6,0.9,2.3,1.5c0.7,0.6,1.2,1.4,1.6,2.3
		c0.4,0.9,0.6,1.8,0.6,2.8s-0.2,1.9-0.6,2.8c-0.4,0.9-0.9,1.6-1.6,2.3c-0.7,0.6-1.4,1.2-2.3,1.5c-0.9,0.4-1.8,0.6-2.8,0.6
		c-1,0-1.9-0.2-2.8-0.6c-0.9-0.4-1.6-0.9-2.3-1.5c-0.6-0.6-1.2-1.4-1.5-2.3s-0.6-1.8-0.6-2.8s0.2-1.9,0.6-2.8s0.9-1.6,1.5-2.3
		c0.6-0.6,1.4-1.2,2.3-1.5S27.9,51.2,28.8,51.2z M28.9,62.3c0.5,0,1-0.1,1.5-0.3c0.5-0.2,0.9-0.5,1.2-0.8c0.4-0.4,0.6-0.8,0.8-1.2
		c0.2-0.5,0.3-1,0.3-1.5s-0.1-1-0.3-1.5c-0.2-0.5-0.5-0.9-0.8-1.2c-0.4-0.4-0.8-0.6-1.2-0.8c-0.5-0.2-1-0.3-1.5-0.3
		c-0.5,0-1,0.1-1.5,0.3s-0.9,0.5-1.2,0.8c-0.4,0.4-0.6,0.8-0.8,1.2c-0.2,0.5-0.3,1-0.3,1.5s0.1,1,0.3,1.5c0.2,0.5,0.5,0.9,0.8,1.2
		c0.4,0.4,0.8,0.6,1.2,0.8S28.3,62.3,28.9,62.3z"/>
	<path id="XMLID_26_" class="st0" d="M45.4,51.3h3.3v14.4h-3.6l-4.7-8.4v8.4h-3.3V51.3h3.6l4.7,8.4V51.3z"/>
	<path id="XMLID_28_" class="st0" d="M53.9,65.7h-3.3V51.2h3.3V65.7z"/>
	<path id="XMLID_30_" class="st0" d="M64.1,51.2v3.3h-2.8v11.2H58V54.5h-2.8v-3.3H64.1z"/>
	<path id="XMLID_32_" class="st0" d="M71.8,51.2c1,0,1.9,0.2,2.8,0.6s1.6,0.9,2.3,1.5s1.2,1.4,1.6,2.3s0.6,1.8,0.6,2.8
		s-0.2,1.9-0.6,2.8s-0.9,1.6-1.6,2.3s-1.4,1.2-2.3,1.5c-0.9,0.4-1.8,0.6-2.8,0.6c-1,0-1.9-0.2-2.8-0.6c-0.9-0.4-1.6-0.9-2.3-1.5
		s-1.2-1.4-1.5-2.3c-0.4-0.9-0.6-1.8-0.6-2.8s0.2-1.9,0.6-2.8c0.4-0.9,0.9-1.6,1.5-2.3s1.4-1.2,2.3-1.5S70.8,51.2,71.8,51.2z
		 M71.8,62.3c0.5,0,1-0.1,1.5-0.3s0.9-0.5,1.2-0.8s0.6-0.8,0.8-1.2c0.2-0.5,0.3-1,0.3-1.5s-0.1-1-0.3-1.5s-0.5-0.9-0.8-1.2
		c-0.4-0.4-0.8-0.6-1.2-0.8s-1-0.3-1.5-0.3s-1,0.1-1.5,0.3c-0.5,0.2-0.9,0.5-1.2,0.8c-0.4,0.4-0.6,0.8-0.8,1.2s-0.3,1-0.3,1.5
		s0.1,1,0.3,1.5c0.2,0.5,0.5,0.9,0.8,1.2s0.8,0.6,1.2,0.8C70.8,62.2,71.3,62.3,71.8,62.3z"/>
	<path id="XMLID_35_" class="st0" d="M84.4,62c-0.2,0-0.3,0-0.5,0.1c-0.2,0-0.3,0-0.5,0v3.6H80V51.3h3.3c0.8,0,1.6,0.2,2.3,0.5
		c0.7,0.3,1.4,0.7,1.9,1.2c0.5,0.5,1,1,1.3,1.7c0.3,0.6,0.5,1.3,0.5,2.1c0,0.8-0.2,1.5-0.5,2.2c-0.3,0.7-0.8,1.2-1.4,1.7l3.2,5.1
		h-3.9L84.4,62z M83.4,58.7c0.4,0,0.7-0.1,1-0.2c0.3-0.1,0.6-0.3,0.8-0.4s0.4-0.4,0.6-0.6c0.1-0.2,0.2-0.5,0.2-0.8s-0.1-0.5-0.2-0.8
		c-0.1-0.2-0.3-0.4-0.6-0.6s-0.5-0.3-0.8-0.4c-0.3-0.1-0.7-0.2-1-0.2V58.7z"/>
</g>
<path id="XMLID_17_" class="st0" d="M51.9,6.4l-4.7-1.6l-4.7,1.6l-17.1,5.8V9.7V6.4h-3.3h-5.4h-3.3v3.3v6.5l-8.8,3l1,2.8l7.8-2.6
	v14.3h3.3V18.3l5.4-1.8l3.3-1.1l21.8-7.4l31,10.4v15.3h3.3V19.5l7.4,2.5l1-2.8L51.9,6.4z M16.7,15.1V9.7h5.4v3.5L16.7,15.1z"/>
</svg>
